<mxfile host="app.diagrams.net" modified="2023-10-31T14:40:06.260Z" agent="Mozilla/5.0 (X11; Linux x86_64) AppleWebKit/537.36 (KHTML, like Gecko) Chrome/118.0.0.0 Safari/537.36" etag="lIw05pWENfphidjLJcVh" version="22.0.8" type="device">
  <diagram name="Page-1" id="pImxxgkzjdJv5OVogXcW">
    <mxGraphModel dx="1259" dy="692" grid="1" gridSize="10" guides="1" tooltips="1" connect="1" arrows="1" fold="1" page="1" pageScale="1" pageWidth="850" pageHeight="1100" math="0" shadow="0">
      <root>
        <mxCell id="0" />
        <mxCell id="1" parent="0" />
        <mxCell id="3Av-pwT-mRt3IVE2EmVr-1" value="Cuenta" style="swimlane;fontStyle=1;align=center;verticalAlign=top;childLayout=stackLayout;horizontal=1;startSize=26;horizontalStack=0;resizeParent=1;resizeParentMax=0;resizeLast=0;collapsible=1;marginBottom=0;whiteSpace=wrap;html=1;" parent="1" vertex="1">
          <mxGeometry x="80" y="80" width="320" height="280" as="geometry" />
        </mxCell>
        <mxCell id="3Av-pwT-mRt3IVE2EmVr-2" value="- nombres: String&lt;br&gt;- apellidos: String&lt;br&gt;- id: String/int&lt;br&gt;- saldo: Double&lt;br&gt;- typeAccount: enum&lt;br&gt;- activo: boolean" style="text;strokeColor=none;fillColor=none;align=left;verticalAlign=top;spacingLeft=4;spacingRight=4;overflow=hidden;rotatable=0;points=[[0,0.5],[1,0.5]];portConstraint=eastwest;whiteSpace=wrap;html=1;" parent="3Av-pwT-mRt3IVE2EmVr-1" vertex="1">
          <mxGeometry y="26" width="320" height="104" as="geometry" />
        </mxCell>
        <mxCell id="3Av-pwT-mRt3IVE2EmVr-3" value="" style="line;strokeWidth=1;fillColor=none;align=left;verticalAlign=middle;spacingTop=-1;spacingLeft=3;spacingRight=3;rotatable=0;labelPosition=right;points=[];portConstraint=eastwest;strokeColor=inherit;" parent="3Av-pwT-mRt3IVE2EmVr-1" vertex="1">
          <mxGeometry y="130" width="320" height="8" as="geometry" />
        </mxCell>
        <mxCell id="3Av-pwT-mRt3IVE2EmVr-4" value="+ constructor&lt;br&gt;+ getters &amp;amp; setters&lt;br&gt;+ to String: String&lt;br&gt;+ consultarSaldo: double&lt;br&gt;+ depositarSaldo(double _monto)&lt;br&gt;+ retirarSaldo(double _monto)&lt;br&gt;+ compararSaldo(Cuenta _cuenta): boolean&lt;br&gt;+ transferirMonto (Cuenta _cuenta, double _monto)&lt;br&gt;+ verificarActividad()" style="text;strokeColor=none;fillColor=none;align=left;verticalAlign=top;spacingLeft=4;spacingRight=4;overflow=hidden;rotatable=0;points=[[0,0.5],[1,0.5]];portConstraint=eastwest;whiteSpace=wrap;html=1;" parent="3Av-pwT-mRt3IVE2EmVr-1" vertex="1">
          <mxGeometry y="138" width="320" height="142" as="geometry" />
        </mxCell>
        <mxCell id="3Av-pwT-mRt3IVE2EmVr-5" value="Ahorro" style="swimlane;fontStyle=1;align=center;verticalAlign=top;childLayout=stackLayout;horizontal=1;startSize=26;horizontalStack=0;resizeParent=1;resizeParentMax=0;resizeLast=0;collapsible=1;marginBottom=0;whiteSpace=wrap;html=1;" parent="1" vertex="1">
          <mxGeometry x="530" y="70" width="120" height="110" as="geometry" />
        </mxCell>
        <mxCell id="3Av-pwT-mRt3IVE2EmVr-6" value="- interes: double" style="text;strokeColor=none;fillColor=none;align=left;verticalAlign=top;spacingLeft=4;spacingRight=4;overflow=hidden;rotatable=0;points=[[0,0.5],[1,0.5]];portConstraint=eastwest;whiteSpace=wrap;html=1;" parent="3Av-pwT-mRt3IVE2EmVr-5" vertex="1">
          <mxGeometry y="26" width="120" height="26" as="geometry" />
        </mxCell>
        <mxCell id="3Av-pwT-mRt3IVE2EmVr-7" value="" style="line;strokeWidth=1;fillColor=none;align=left;verticalAlign=middle;spacingTop=-1;spacingLeft=3;spacingRight=3;rotatable=0;labelPosition=right;points=[];portConstraint=eastwest;strokeColor=inherit;" parent="3Av-pwT-mRt3IVE2EmVr-5" vertex="1">
          <mxGeometry y="52" width="120" height="8" as="geometry" />
        </mxCell>
        <mxCell id="3Av-pwT-mRt3IVE2EmVr-8" value="+ aplicarInteres" style="text;strokeColor=none;fillColor=none;align=left;verticalAlign=top;spacingLeft=4;spacingRight=4;overflow=hidden;rotatable=0;points=[[0,0.5],[1,0.5]];portConstraint=eastwest;whiteSpace=wrap;html=1;" parent="3Av-pwT-mRt3IVE2EmVr-5" vertex="1">
          <mxGeometry y="60" width="120" height="50" as="geometry" />
        </mxCell>
        <mxCell id="3Av-pwT-mRt3IVE2EmVr-9" style="edgeStyle=orthogonalEdgeStyle;rounded=0;orthogonalLoop=1;jettySize=auto;html=1;exitX=1;exitY=0.5;exitDx=0;exitDy=0;entryX=0;entryY=0.5;entryDx=0;entryDy=0;" parent="1" source="3Av-pwT-mRt3IVE2EmVr-2" target="3Av-pwT-mRt3IVE2EmVr-6" edge="1">
          <mxGeometry relative="1" as="geometry" />
        </mxCell>
        <mxCell id="3Av-pwT-mRt3IVE2EmVr-14" style="edgeStyle=orthogonalEdgeStyle;rounded=0;orthogonalLoop=1;jettySize=auto;html=1;exitX=1;exitY=0.5;exitDx=0;exitDy=0;entryX=0;entryY=0.25;entryDx=0;entryDy=0;" parent="1" source="3Av-pwT-mRt3IVE2EmVr-2" target="qPXU1aCihd12mrtZxSVJ-2" edge="1">
          <mxGeometry relative="1" as="geometry">
            <mxPoint x="425" y="317" as="targetPoint" />
          </mxGeometry>
        </mxCell>
        <mxCell id="qPXU1aCihd12mrtZxSVJ-2" value="Corriente" style="swimlane;fontStyle=1;align=center;verticalAlign=top;childLayout=stackLayout;horizontal=1;startSize=26;horizontalStack=0;resizeParent=1;resizeParentMax=0;resizeLast=0;collapsible=1;marginBottom=0;whiteSpace=wrap;html=1;" vertex="1" parent="1">
          <mxGeometry x="530" y="210" width="115" height="34" as="geometry" />
        </mxCell>
        <mxCell id="qPXU1aCihd12mrtZxSVJ-4" value="" style="line;strokeWidth=1;fillColor=none;align=left;verticalAlign=middle;spacingTop=-1;spacingLeft=3;spacingRight=3;rotatable=0;labelPosition=right;points=[];portConstraint=eastwest;strokeColor=inherit;" vertex="1" parent="qPXU1aCihd12mrtZxSVJ-2">
          <mxGeometry y="26" width="115" height="8" as="geometry" />
        </mxCell>
        <mxCell id="qPXU1aCihd12mrtZxSVJ-6" style="edgeStyle=orthogonalEdgeStyle;rounded=0;orthogonalLoop=1;jettySize=auto;html=1;exitX=1;exitY=0.5;exitDx=0;exitDy=0;" edge="1" parent="qPXU1aCihd12mrtZxSVJ-2">
          <mxGeometry relative="1" as="geometry">
            <mxPoint x="270" y="47" as="sourcePoint" />
            <mxPoint x="270" y="47" as="targetPoint" />
          </mxGeometry>
        </mxCell>
      </root>
    </mxGraphModel>
  </diagram>
</mxfile>
